HIERARCHY
ROOT Hips
{
	OFFSET 0.00000 0.00000 0.00000
	CHANNELS 6 Xposition Yposition Zposition Yrotation Zrotation Xrotation 
	JOINT Lumbar
	{
		OFFSET 0 0 0
		CHANNELS 3 Zrotation Xrotation Yrotation
		JOINT Neck
		{
			OFFSET 0.00 0.2701 0.00
			CHANNELS 3 Zrotation Xrotation Yrotation
			End Site
			{
				OFFSET 0.00 0.1379 0.00
			}
		}
		JOINT RightShoulder
		{
			OFFSET 0.0119 0.2289 0.1181
			CHANNELS 3 Zrotation Xrotation Yrotation
			JOINT RightElbow
			{
				OFFSET 0.00 -0.1475 0.00
				CHANNELS 2 Zrotation Yrotation
				JOINT RightWrist
				{
					OFFSET 0.00 -0.1605 0.00
					CHANNELS 2 Zrotation Xrotation
					End Site
					{
						OFFSET 0.0040 -0.1068 0.0006
					}
				}
			}
		}
		JOINT LeftShoulder
		{
			OFFSET 0.0119 0.2289 -0.1181
			CHANNELS 3 Zrotation Xrotation Yrotation
			JOINT LeftElbow
			{
				OFFSET 0.00 -0.1475 0.00
				CHANNELS 2 Zrotation Yrotation
				JOINT LeftWrist
				{
					OFFSET 0.00 -0.1605 0.00
					CHANNELS 2 Zrotation Xrotation
					End Site
					{
						OFFSET 0.0040 -0.1068 -0.0006
					}
				}
			}
		}
	}
	JOINT RightHip
	{
		OFFSET 0.0316 -0.0424 0.0458
		CHANNELS 3 Zrotation Xrotation Yrotation
		JOINT RightKnee
		{
			OFFSET 0.00 -0.2438 0.00
			CHANNELS 1 Zrotation
			JOINT RightAnkle
			{
				OFFSET 0.00 -0.2449 0.00
				CHANNELS 3 Zrotation Xrotation Yrotation
				End Site
				{
					OFFSET 0.1237 -0.0542 0.0051
				}
			}
		}
	}
	JOINT LeftHip
	{
		OFFSET 0.0316 -0.0424 -0.0458
		CHANNELS 3 Zrotation Xrotation Yrotation
		JOINT LeftKnee
		{
			OFFSET 0.00 -0.2438 0.00
			CHANNELS 1 Zrotation
			JOINT LeftAnkle
			{
				OFFSET 0.00 -0.2449 0.00
				CHANNELS 3 Zrotation Xrotation Yrotation
				End Site
				{
					OFFSET 0.1237 -0.0542 -0.0051
				}
			}
		}
	}
}
MOTION
Frames: 20
Frame Time: 0.02
0 0.57926 0 181.4516 0 -3.70214 6.24428 5.36252 -5.24791 -32.57106 1.89282 2.25012 29.27277 -17.52365 18.01338 11.39743 82.12944 -1.98537 -4.02492 26.63441 11.68551 -19.58766 9.02741 -81.58819 -3.33684 2.41181 -4.0371 8.80492 -4.18587 -6.99214 -10.33202 -1.74148 -7.45372 -8.77147 5.06409 21.60656 -0.98128 -6.82014 2.16751 6.34852
-0.00022 0.57922 -0.00016 181.59029 0 -3.69799 6.30575 5.2989 -5.14319 -32.6445 1.84297 2.26221 29.06339 -17.50694 17.50746 11.22703 82.08135 -1.94892 -3.97919 26.31768 11.79731 -19.10406 8.93209 -81.56382 -3.30326 2.33534 -4.03885 8.92191 -2.69875 -7.04086 -10.35334 -1.52711 -9.0068 -8.76318 5.09663 21.79501 -0.99235 -6.78073 2.04539 6.03473
-0.00045 0.57919 -0.00031 181.72969 0 -3.69365 6.36693 5.23506 -5.03895 -32.71771 1.79348 2.27446 28.85437 -17.49042 17.00408 11.05715 82.03365 -1.91239 -3.93295 26.00339 11.90889 -18.62272 8.838 -81.5393 -3.27025 2.25985 -4.04067 9.03802 -1.22629 -7.08932 -10.37431 -1.31531 -10.54642 -8.75441 5.12928 21.98007 -1.00387 -6.74166 1.92467 5.72347
-0.00067 0.57915 -0.00047 181.8719 0 -3.68862 6.42744 5.17022 -4.93551 -32.79013 1.74504 2.28779 28.64398 -17.47479 16.50492 10.88779 81.98692 -1.87527 -3.88386 25.6946 12.02001 -18.14578 8.7473 -81.51341 -3.23897 2.18704 -4.04308 9.15198 0.21139 -7.13645 -10.3952 -1.11165 -12.05508 -8.74386 5.16226 22.15658 -1.01732 -6.70346 1.80868 5.41823
-0.0009 0.57911 -0.00061 181.99755 0 -3.68735 6.49135 5.11129 -4.8277 -32.86605 1.69114 2.29577 28.43991 -17.45481 15.98218 10.71581 81.93493 -1.84135 -3.84941 25.35523 12.13277 -17.6456 8.6379 -81.49415 -3.19828 2.09948 -4.04276 9.27759 1.8444 -7.18973 -10.41784 -0.86485 -13.73681 -8.74304 5.19301 22.38216 -1.02057 -6.66053 1.66806 5.07988
-0.0011 0.57907 -0.0008 182.15922 0 -3.67805 6.54812 5.03951 -4.7293 -32.93497 1.64878 2.3148 28.22334 -17.44379 15.51069 10.5495 81.89419 -1.80065 -3.78434 25.08188 12.2425 -17.19506 8.56869 -81.46134 -3.17767 2.04356 -4.04794 9.37822 3.05516 -7.23054 -10.43583 -0.70956 -15.04468 -8.72142 5.22877 22.50117 -1.04538 -6.62775 1.5794 4.81273
-0.00123 0.57905 -0.00112 182.41936 0 -3.64608 6.58502 4.93215 -4.65472 -32.98206 1.639 2.3684 27.96023 -17.46035 15.16535 10.39516 81.8838 -1.73972 -3.62687 24.9819 12.34203 -16.87405 8.60807 -81.38493 -3.21278 2.07364 -4.07111 9.41232 3.15761 -7.23194 -10.44918 -0.81167 -15.3743 -8.64128 5.27715 22.33992 -1.13276 -6.62223 1.63925 4.73458
-0.00132 0.57904 -0.0015 182.7164 0 -3.60603 6.61472 4.81162 -4.58998 -33.02277 1.64079 2.43252 27.68703 -17.48552 14.8742 10.24708 81.88481 -1.67208 -3.43959 24.95035 12.43893 -16.60413 8.68856 -81.29587 -3.26817 2.136 -4.09922 9.421 2.82607 -7.22179 -10.45653 -1.00525 -15.31969 -8.54012 5.33091 22.06848 -1.24158 -6.62711 1.75069 4.72943
-0.00142 0.57902 -0.00185 182.99748 0 -3.57 6.64795 4.69714 -4.52202 -33.06787 1.63675 2.48915 27.4252 -17.50485 14.56782 10.09834 81.88112 -1.6085 -3.27107 24.89287 12.53842 -16.31545 8.75176 -81.21658 -3.31411 2.18446 -4.12343 9.43949 2.65204 -7.21997 -10.46107 -1.15429 -15.40236 -8.44935 5.38305 21.83789 -1.33853 -6.62772 1.83531 4.69596
-0.00153 0.579 -0.00218 183.27485 0 -3.53263 6.68038 4.58276 -4.44868 -33.10597 1.63492 2.55694 27.13234 -17.53204 14.2218 9.94038 81.87566 -1.54096 -3.08123 24.81257 12.63217 -16.00832 8.80885 -81.12043 -3.36091 2.22943 -4.15515 9.46446 2.63417 -7.20459 -10.48819 -1.31656 -15.63096 -8.35558 5.43161 21.64559 -1.44386 -6.62633 1.93415 4.64277
-0.00162 0.57898 -0.00258 183.56902 0 -3.49595 6.71239 4.46462 -4.38904 -33.15803 1.63149 2.60432 26.90474 -17.54525 13.97124 9.80314 81.87625 -1.47971 -2.92787 24.79732 12.73707 -15.75135 8.88872 -81.05627 -3.41091 2.28963 -4.17177 9.47096 2.2023 -7.21539 -10.46785 -1.47214 -15.47888 -8.2624 5.48903 21.3482 -1.53758 -6.63164 2.01568 4.64703
-0.00165 0.57892 -0.00312 183.89827 0 -3.46456 6.7478 4.3427 -4.36301 -33.24237 1.61883 2.5904 26.83441 -17.51522 13.97024 9.72149 81.89406 -1.44083 -2.88985 24.93424 12.87445 -15.62382 9.01879 -81.08456 -3.46319 2.38168 -4.15082 9.42329 0.60577 -7.29522 -10.30936 -1.59443 -14.24091 -8.18112 5.56834 20.78015 -1.58822 -6.65236 2.03622 4.8004
-0.00165 0.57885 -0.00372 184.24361 0 -3.43383 6.78227 4.21679 -4.35055 -33.34237 1.60472 2.55638 26.83528 -17.47164 14.0633 9.66063 81.91709 -1.40809 -2.88824 25.13636 13.02258 -15.54448 9.17076 -81.14529 -3.51826 2.48839 -4.11357 9.35939 -1.37198 -7.40268 -10.10484 -1.70565 -12.65391 -8.09985 5.6566 20.11144 -1.62798 -6.67953 2.03771 5.00768
-0.00166 0.57879 -0.00431 184.58305 0 -3.40195 6.81565 4.0905 -4.33329 -33.44046 1.59233 2.53265 26.81958 -17.43549 14.11411 9.59013 81.93538 -1.37004 -2.86513 25.3155 13.1656 -15.44065 9.31456 -81.19051 -3.57311 2.58991 -4.08018 9.30947 -3.08714 -7.50182 -9.92715 -1.81667 -11.31532 -8.01564 5.74165 19.49381 -1.67589 -6.70415 2.04825 5.18455
-0.0017 0.57873 -0.00483 184.91774 0 -3.37361 6.85615 3.97311 -4.31141 -33.51666 1.5751 2.50292 26.73496 -17.39287 14.16576 9.52008 81.96347 -1.34149 -2.86177 25.4685 13.31103 -15.34903 9.45264 -81.23856 -3.62433 2.68634 -4.06163 9.23198 -5.18064 -7.58373 -9.72466 -1.95199 -9.59765 -7.94452 5.8234 18.85019 -1.70907 -6.72766 2.05879 5.38813
-0.00166 0.57867 -0.00551 185.26576 0 -3.33787 6.88046 3.8363 -4.30123 -33.64183 1.56843 2.48266 26.81335 -17.36215 14.23597 9.4547 81.973 -1.29584 -2.82646 25.69111 13.45205 -15.24341 9.60685 -81.28855 -3.68343 2.79644 -4.00861 9.20687 -6.58857 -7.7069 -9.56249 -2.03406 -8.57484 -7.84464 5.91389 18.23776 -1.77253 -6.75467 2.0643 5.5489
-0.00142 0.57862 -0.00657 185.64631 0 -3.28389 6.87049 3.64786 -4.32877 -33.90149 1.58306 2.47765 27.30362 -17.3529 14.34647 9.39099 81.92315 -1.19188 -2.69355 26.08462 13.59477 -15.08163 9.80388 -81.33627 -3.764 2.9405 -3.86129 9.34357 -5.85482 -7.94845 -9.52747 -1.9609 -9.70538 -7.6798 6.02775 17.73907 -1.90171 -6.79153 2.05903 5.57061
-0.0011 0.57859 -0.00777 186.04008 0 -3.22201 6.84213 3.44001 -4.366 -34.20888 1.60994 2.48603 27.95905 -17.3591 14.47061 9.33266 81.85547 -1.07246 -2.52788 26.54633 13.72922 -14.90505 10.01545 -81.38486 -3.85219 3.09768 -3.68041 9.53132 -4.4432 -8.22837 -9.53397 -1.83593 -11.52326 -7.48299 6.14969 17.27403 -2.0659 -6.83133 2.04944 5.54908
-0.0008 0.57855 -0.00892 186.42722 0 -3.16226 6.81584 3.24032 -4.39296 -34.49301 1.63643 2.49826 28.55303 -17.36743 14.57937 9.2755 81.80066 -0.96622 -2.37717 26.98037 13.85714 -14.73853 10.21787 -81.43286 -3.93653 3.24888 -3.51695 9.68696 -3.44359 -8.48362 -9.51833 -1.74157 -12.9281 -7.29201 6.26714 16.79377 -2.22688 -6.86855 2.04257 5.5512
-0.00058 0.57849 -0.01005 186.81554 0 -3.10876 6.8171 3.04284 -4.44494 -34.78621 1.64067 2.46679 29.09354 -17.33538 14.72716 9.20261 81.72673 -0.83359 -2.22577 27.40386 14.03045 -14.55903 10.43211 -81.48267 -4.02269 3.40079 -3.34381 9.8791 -2.02522 -8.771 -9.51422 -1.61774 -14.73763 -7.13955 6.38887 16.3147 -2.33212 -6.91115 2.0317 5.53579
